<svg width="35" height="35" viewBox="0 0 35 35" fill="none" xmlns="http://www.w3.org/2000/svg">
<path d="M2.49872 22.6644C2.13272 22.6818 1.75928 22.702 1.37865 22.7249C3.88504 18.1007 6.2063 11.5869 6.99799 6.48091C13.9847 4.54115 20.2067 5.24959 20.5793 9.46694C24.2009 6.82235 31.0103 10.1564 33.7045 13.2116C33.4705 13.5206 33.2445 13.8265 33.0262 14.1296C33.0232 14.1338 33.0201 14.138 33.0171 14.1422C33.0985 14.2336 34.2725 14.8362 34.2912 16.3344C33.8341 16.1399 33.9797 16.0258 33.3468 16.0212C31.5072 17.4617 27.7021 25.0899 27.1498 28.4882C22.337 25.7067 15.9157 24.8348 13.1202 29.0377C12.8737 24.4033 10.082 23.6643 1.87383 24.1569C1.87383 24.1569 2.3912 23.2195 2.49872 22.6644Z" fill="#F5F5F5"/>
<path d="M13.362 27.9119C14.4546 22.9425 9.58685 22.2323 1.37865 22.7249C3.88504 18.1007 6.2063 11.5869 6.99799 6.48091C13.9847 4.54115 20.2067 5.24959 20.5793 9.46694M13.362 27.9119C14.4546 22.9425 22.4088 24.3589 27.2216 27.1403C28.3143 22.1709 30.0163 18.0821 33.7045 13.2116C31.0103 10.1564 24.2009 6.82235 20.5793 9.46694M13.362 27.9119C14.4546 22.9425 16.891 14.3374 20.5793 9.46694M13.362 27.9119C13.2534 28.4029 13.1283 28.6053 13.1202 29.0377M13.1202 29.0377C12.8737 24.4033 10.082 23.6643 1.87383 24.1569C1.87383 24.1569 2.3912 23.2195 2.49872 22.6644M13.1202 29.0377C15.9157 24.8348 22.337 25.7067 27.1498 28.4882C27.8456 24.2068 33.7045 13.2116 34.2912 16.3344M34.2912 16.3344C34.2707 14.6915 32.8609 14.1255 33.0262 14.1296M34.2912 16.3344C33.8341 16.1399 33.9797 16.0258 33.3468 16.0212" stroke="#3F3E55"/>
</svg>
