<svg width="629" height="432" viewBox="0 0 629 432" fill="none" xmlns="http://www.w3.org/2000/svg">
<path d="M275.994 60L367.746 95.0105L275.994 127.107L182 95.0105L275.994 60Z" fill="#00CED1"/>
<path d="M367.813 94.9443L275.969 127.038V236.606L367.813 202.843V94.9443Z" fill="#01A4A7"/>
<path d="M182 94.9443L276.205 127.038V236.606L182 199.302V94.9443Z" fill="#4DDEE0"/>
<path d="M438.986 86L580.513 140.004L438.986 189.512L294 140.004L438.986 86Z" fill="#4682B4"/>
<path d="M580.617 139.901L438.948 189.406V358.415L580.617 306.336V139.901Z" fill="#286495"/>
<path d="M294 139.901L439.312 189.406V358.415L294 300.873V139.901Z" fill="#6D9FC8"/>
<path d="M369.874 205.66L485.193 249.663L369.874 290.004L251.737 249.663L369.874 205.66Z" fill="#D32F2F"/>
<path d="M485.277 249.579L369.843 289.916V427.627L485.277 385.193V249.579Z" fill="#B11E1E"/>
<path d="M251.737 249.579L370.139 289.916V427.627L251.737 380.741V249.579Z" fill="#DF5252"/>
<path d="M167.36 117.174L330.728 179.512L167.36 236.66L0 179.512L167.36 117.174Z" fill="#FBCE49"/>
<path d="M0 179.512L167.36 236.629V431.626H0V179.512Z" fill="#F8DB84"/>
<path d="M330.728 179.512L167.36 236.629V431.626H330.728V179.512Z" fill="#D9AE30"/>
<path d="M565.647 261L628.753 285.08L565.647 307.155L501 285.08L565.647 261Z" fill="#E0CC19"/>
<path d="M628.799 285.033L565.63 307.107V382.466L628.799 359.244V285.033Z" fill="#BBAA0F"/>
<path d="M501 285.033L565.793 307.107V382.466L501 356.808V285.033Z" fill="#EBDC54"/>
<circle cx="166.5" cy="40.5" r="27.5" fill="#3F3E55"/>
<path d="M166.5 13C181.688 13 194 25.3122 194 40.5C194 55.6878 181.688 68 166.5 68C151.312 68 139 55.6878 139 40.5C139 25.3122 151.312 13 166.5 13ZM156.771 48.1529C156.066 47.2583 154.77 47.1045 153.875 47.8094C152.981 48.5142 152.827 49.8108 153.532 50.7054C156.64 54.651 161.379 57.0018 166.5 57.0018C171.615 57.0018 176.347 54.6573 179.456 50.7207C180.162 49.8269 180.01 48.5302 179.116 47.8243C178.222 47.1184 176.925 47.2706 176.22 48.1644C173.884 51.121 170.339 52.8774 166.5 52.8774C162.656 52.8774 159.106 51.1162 156.771 48.1529ZM158.253 31.5656C156.355 31.5656 154.817 33.1036 154.817 35.0007C154.817 36.8978 156.355 38.4357 158.253 38.4357C160.15 38.4357 161.688 36.8978 161.688 35.0007C161.688 33.1036 160.15 31.5656 158.253 31.5656ZM174.75 31.5656C172.853 31.5656 171.315 33.1036 171.315 35.0007C171.315 36.8978 172.853 38.4357 174.75 38.4357C176.647 38.4357 178.185 36.8978 178.185 35.0007C178.185 33.1036 176.647 31.5656 174.75 31.5656Z" fill="#FBCE49"/>
<path d="M181.742 78.1618C181.742 77.4204 181.348 76.6864 180.582 76.0015C179.816 75.3166 178.693 74.6942 177.278 74.17C175.863 73.6458 174.182 73.23 172.333 72.9463C170.484 72.6626 168.502 72.5166 166.5 72.5166C164.499 72.5166 162.517 72.6626 160.667 72.9463C158.818 73.23 157.138 73.6458 155.723 74.17C154.307 74.6942 153.185 75.3166 152.419 76.0015C151.653 76.6864 151.258 77.4204 151.258 78.1618L166.5 78.1618H181.742Z" fill="#FBCE49"/>
<path d="M166.5 108.646L181.655 78.1616H151.345L166.5 108.646Z" fill="#FBCE49"/>
<ellipse cx="166.5" cy="77.5963" rx="15.2419" ry="5.08065" fill="#C69F2E"/>
<circle cx="438.5" cy="22.5" r="22.5" fill="#3F3E55"/>
<path d="M438.5 0C450.926 0 461 10.0736 461 22.5C461 34.9264 450.926 45 438.5 45C426.074 45 416 34.9264 416 22.5C416 10.0736 426.074 0 438.5 0ZM438.5 25.8688C434.822 25.8688 431.375 27.3486 428.853 29.9244C428.201 30.5902 428.212 31.6585 428.878 32.3104C429.544 32.9624 430.612 32.9512 431.264 32.2854C433.158 30.3513 435.739 29.2433 438.5 29.2433C441.255 29.2433 443.831 30.3464 445.724 32.273C446.377 32.9377 447.445 32.947 448.11 32.2939C448.775 31.6408 448.784 30.5726 448.131 29.9079C445.61 27.3421 442.17 25.8688 438.5 25.8688ZM431.752 15.1901C430.2 15.1901 428.942 16.4484 428.942 18.0005C428.942 19.5527 430.2 20.811 431.752 20.811C433.304 20.811 434.563 19.5527 434.563 18.0005C434.563 16.4484 433.304 15.1901 431.752 15.1901ZM445.25 15.1901C443.698 15.1901 442.439 16.4484 442.439 18.0005C442.439 19.5527 443.698 20.811 445.25 20.811C446.802 20.811 448.06 19.5527 448.06 18.0005C448.06 16.4484 446.802 15.1901 445.25 15.1901Z" fill="#4682B4"/>
<path d="M450.778 54.0001C450.778 53.4165 450.467 52.8385 449.864 52.2993C449.261 51.7601 448.377 51.2701 447.263 50.8574C446.149 50.4447 444.826 50.1173 443.37 49.894C441.914 49.6706 440.354 49.5557 438.778 49.5557C437.202 49.5557 435.642 49.6706 434.186 49.894C432.73 50.1173 431.407 50.4447 430.293 50.8574C429.178 51.2701 428.294 51.7601 427.691 52.2993C427.088 52.8385 426.778 53.4165 426.778 54.0001L438.778 54.0001H450.778Z" fill="#4682B4"/>
<path d="M438.778 78L450.71 54H426.846L438.778 78Z" fill="#4682B4"/>
<ellipse cx="438.778" cy="53.5557" rx="12" ry="4" fill="#205784"/>
<circle cx="370" cy="147" r="20" fill="#3F3E55"/>
<path d="M370 127C381.046 127 390 135.954 390 147C390 158.046 381.046 167 370 167C358.954 167 350 158.046 350 147C350 135.954 358.954 127 370 127ZM370 149.987C366.73 149.987 363.666 151.302 361.424 153.592C360.844 154.184 360.854 155.134 361.446 155.714C362.038 156.293 362.987 156.283 363.567 155.691C365.251 153.972 367.545 152.987 370 152.987C372.449 152.987 374.739 153.967 376.422 155.68C377.003 156.271 377.953 156.279 378.543 155.699C379.134 155.118 379.143 154.169 378.562 153.578C376.321 151.297 373.262 149.987 370 149.987ZM362.437 136.319L362.254 136.194C361.622 135.825 360.799 135.966 360.329 136.554C359.858 137.142 359.902 137.975 360.4 138.511L360.563 138.662L363.076 140.67C362.154 141.038 361.502 141.939 361.502 142.992C361.502 144.372 362.621 145.49 364.001 145.49C365.381 145.49 366.499 144.372 366.499 142.991C366.939 142.991 367.375 142.798 367.671 142.428C368.142 141.84 368.098 141.006 367.6 140.471L367.437 140.319L362.437 136.319ZM379.671 136.553C379.2 135.965 378.378 135.826 377.746 136.194L377.563 136.32L372.565 140.32L372.402 140.471C371.904 141.006 371.861 141.84 372.331 142.428C372.578 142.737 372.922 142.922 373.284 142.973L373.502 142.988C373.502 144.372 374.621 145.49 376.001 145.49C377.381 145.49 378.499 144.372 378.499 142.992C378.499 142.026 377.952 141.189 377.151 140.773L376.926 140.67L379.437 138.662L379.6 138.511C380.098 137.975 380.142 137.141 379.671 136.553Z" fill="#D32F2F"/>
<path d="M381.127 175.177C381.127 174.653 380.849 174.135 380.308 173.651C379.767 173.167 378.974 172.728 377.974 172.357C376.974 171.987 375.788 171.693 374.481 171.493C373.175 171.293 371.775 171.189 370.361 171.189C368.948 171.189 367.548 171.293 366.241 171.493C364.935 171.693 363.748 171.987 362.749 172.357C361.749 172.728 360.956 173.167 360.415 173.651C359.874 174.135 359.595 174.653 359.595 175.177L370.361 175.177H381.127Z" fill="#D32F2F"/>
<path d="M370.361 196.71L381.066 175.178H359.656L370.361 196.71Z" fill="#D32F2F"/>
<ellipse cx="370.361" cy="174.777" rx="10.7661" ry="3.58871" fill="#A41C1C"/>
<circle cx="274" cy="21" r="14" fill="#3F3E55"/>
<path d="M274 7C266.268 7 260 13.268 260 21C260 28.7319 266.268 35 274 35C281.732 35 288 28.7319 288 21C288 13.268 281.732 7 274 7ZM271.55 18.2006C271.55 19.1666 270.767 19.9496 269.801 19.9496C268.835 19.9496 268.052 19.1666 268.052 18.2006C268.052 17.2347 268.835 16.4516 269.801 16.4516C270.767 16.4516 271.55 17.2347 271.55 18.2006ZM279.95 18.2006C279.95 19.1666 279.167 19.9496 278.201 19.9496C277.235 19.9496 276.452 19.1666 276.452 18.2006C276.452 17.2347 277.235 16.4516 278.201 16.4516C279.167 16.4516 279.95 17.2347 279.95 18.2006ZM267.7 26.25C267.7 25.6701 268.17 25.2 268.75 25.2H279.25C279.83 25.2 280.3 25.6701 280.3 26.25C280.3 26.8299 279.83 27.3 279.25 27.3H268.75C268.17 27.3 267.7 26.8299 267.7 26.25Z" fill="#00CED1"/>
<path d="M281.903 41.5808C281.903 41.2207 281.712 40.8642 281.34 40.5315C280.968 40.1988 280.422 39.8966 279.735 39.642C279.047 39.3873 278.231 39.1854 277.333 39.0476C276.435 38.9098 275.472 38.8389 274.5 38.8389C273.528 38.8389 272.565 38.9098 271.667 39.0476C270.769 39.1854 269.952 39.3873 269.265 39.642C268.578 39.8966 268.032 40.1988 267.66 40.5315C267.288 40.8642 267.097 41.2207 267.097 41.5808L274.5 41.5808H281.903Z" fill="#0ECACC"/>
<path d="M274.5 56.3867L281.861 41.5803H267.139L274.5 56.3867Z" fill="#0ECACC"/>
<ellipse cx="274.5" cy="41.3066" rx="7.40323" ry="2.46774" fill="#02A6A9"/>
<circle cx="565.5" cy="222.5" r="12.5" fill="#3F3E55"/>
<path d="M565.5 210C572.404 210 578 215.596 578 222.5C578 229.404 572.404 235 565.5 235C558.596 235 553 229.404 553 222.5C553 215.596 558.596 210 565.5 210ZM565.5 223.744C563.947 223.744 562.688 225.003 562.688 226.557C562.688 228.11 563.947 229.369 565.5 229.369C567.053 229.369 568.312 228.11 568.312 226.557C568.312 225.003 567.053 223.744 565.5 223.744ZM561.751 218.433C560.888 218.433 560.189 219.132 560.189 219.995C560.189 220.857 560.888 221.556 561.751 221.556C562.613 221.556 563.312 220.857 563.312 219.995C563.312 219.132 562.613 218.433 561.751 218.433ZM569.251 218.433C568.388 218.433 567.689 219.132 567.689 219.995C567.689 220.857 568.388 221.556 569.251 221.556C570.113 221.556 570.812 220.857 570.812 219.995C570.812 219.132 570.113 218.433 569.251 218.433Z" fill="#E0CC19"/>
<path d="M573.137 242.008C573.137 241.642 572.943 241.281 572.565 240.943C572.188 240.606 571.634 240.299 570.937 240.04C570.239 239.782 569.411 239.577 568.5 239.437C567.588 239.298 566.611 239.226 565.625 239.226C564.638 239.226 563.662 239.298 562.75 239.437C561.839 239.577 561.011 239.782 560.313 240.04C559.615 240.299 559.062 240.606 558.685 240.943C558.307 241.281 558.113 241.642 558.113 242.008L565.625 242.008H573.137Z" fill="#E0CC19"/>
<path d="M565.625 257.032L573.094 242.008H558.156L565.625 257.032Z" fill="#E0CC19"/>
<ellipse cx="565.625" cy="241.73" rx="7.5121" ry="2.50403" fill="#B7A508"/>
</svg>
