<svg width="545" height="66" viewBox="0 0 545 66" fill="none" xmlns="http://www.w3.org/2000/svg">
<path d="M17.9871 14.7681C17.9871 12.4824 18.3387 10.5189 19.0421 8.87788C19.7454 7.17821 20.6538 5.80089 21.7674 4.74592C22.881 3.63235 24.1411 2.84112 25.5477 2.37224C27.0129 1.84476 28.4489 1.58102 29.8555 1.58102V4.65801C28.3316 4.65801 26.8957 5.1855 25.5477 6.24047C24.2583 7.23682 23.4964 8.61414 23.2619 10.3724C23.4378 10.3138 23.6429 10.2552 23.8773 10.1966C24.0532 10.138 24.2583 10.0794 24.4927 10.0208C24.7858 9.96216 25.1081 9.93286 25.4598 9.93286C27.2181 9.93286 28.6833 10.6069 29.8555 11.9549C31.0277 13.2443 31.6138 14.7681 31.6138 16.5264C31.6138 18.2847 30.9984 19.8378 29.7676 21.1859C28.5954 22.4753 27.0129 23.12 25.0202 23.12C22.7931 23.12 21.0641 22.2994 19.8333 20.6584C18.6025 18.9587 17.9871 16.9953 17.9871 14.7681ZM0.404278 14.7681C0.404278 12.4824 0.755935 10.5189 1.45925 8.87788C2.16256 7.17821 3.071 5.80089 4.18458 4.74592C5.29816 3.63235 6.55826 2.84112 7.96489 2.37224C9.43012 1.84476 10.8661 1.58102 12.2727 1.58102V4.65801C10.7488 4.65801 9.3129 5.1855 7.96489 6.24047C6.67548 7.23682 5.91356 8.61414 5.67912 10.3724C5.85495 10.3138 6.06008 10.2552 6.29452 10.1966C6.47035 10.138 6.67548 10.0794 6.90992 10.0208C7.20297 9.96216 7.52532 9.93286 7.87697 9.93286C9.63525 9.93286 11.1005 10.6069 12.2727 11.9549C13.4449 13.2443 14.031 14.7681 14.031 16.5264C14.031 18.2847 13.4156 19.8378 12.1848 21.1859C11.0126 22.4753 9.43012 23.12 7.4374 23.12C5.21025 23.12 3.48127 22.2994 2.25047 20.6584C1.01968 18.9587 0.404278 16.9953 0.404278 14.7681ZM527.006 9.93286C527.006 12.2186 526.654 14.2113 525.951 15.911C525.248 17.5521 524.339 18.9294 523.226 20.043C522.112 21.0979 520.823 21.8892 519.358 22.4167C517.951 22.8855 516.544 23.12 515.138 23.12V20.043C516.661 20.043 518.068 19.5448 519.358 18.5484C520.706 17.4935 521.497 16.0868 521.731 14.3286C521.555 14.4458 521.35 14.5337 521.116 14.5923C520.647 14.7095 520.119 14.7681 519.533 14.7681C517.775 14.7681 516.31 14.1234 515.138 12.834C513.965 11.486 513.379 9.93285 513.379 8.17457C513.379 6.41629 513.965 4.89245 515.138 3.60304C516.368 2.25503 517.98 1.58102 519.973 1.58102C522.2 1.58102 523.929 2.43085 525.16 4.13052C526.391 5.77159 527.006 7.7057 527.006 9.93286ZM544.589 9.93286C544.589 12.2186 544.237 14.2113 543.534 15.911C542.831 17.5521 541.922 18.9294 540.809 20.043C539.695 21.0979 538.406 21.8892 536.94 22.4167C535.534 22.8855 534.127 23.12 532.72 23.12V20.043C534.244 20.043 535.651 19.5448 536.94 18.5484C538.288 17.4935 539.08 16.0868 539.314 14.3286C539.138 14.4458 538.933 14.5337 538.699 14.5923C538.23 14.7095 537.702 14.7681 537.116 14.7681C535.358 14.7681 533.893 14.1234 532.72 12.834C531.548 11.486 530.962 9.93285 530.962 8.17457C530.962 6.41629 531.548 4.89245 532.72 3.60304C533.951 2.25503 535.563 1.58102 537.556 1.58102C539.783 1.58102 541.512 2.43085 542.743 4.13052C543.973 5.77159 544.589 7.7057 544.589 9.93286Z" fill="#00A891"/>
<path d="M73.1051 1.84202H111.653V9.9981H82.549V28.8H108.906V36.8703H82.549V64H73.1051V1.84202ZM138.096 64.9444C133.575 64.9444 129.64 63.9571 126.291 61.9824C122.972 60.0078 120.41 57.2176 118.607 53.6117C116.833 50.0059 115.946 45.799 115.946 40.9912C115.946 36.2407 116.833 32.0339 118.607 28.3708C120.41 24.7077 122.943 21.8602 126.206 19.8283C129.468 17.7965 133.231 16.7805 137.495 16.7805C141.244 16.7805 144.678 17.5961 147.798 19.2274C150.917 20.8586 153.421 23.4342 155.31 26.9542C157.227 30.4456 158.186 34.867 158.186 40.2186V43.481H125.046C125.132 46.3714 125.719 48.8755 126.806 50.9932C127.923 53.0823 129.454 54.6706 131.4 55.7581C133.346 56.8455 135.606 57.3893 138.182 57.3893C140.672 57.3893 142.775 56.9314 144.492 56.0156C146.209 55.0712 147.483 53.8407 148.313 52.3239H157.585C156.898 54.8423 155.668 57.0602 153.893 58.9776C152.119 60.8663 149.872 62.3402 147.154 63.399C144.464 64.4293 141.445 64.9444 138.096 64.9444ZM149.171 36.6127C149.171 34.2374 148.685 32.1197 147.712 30.2595C146.767 28.3994 145.422 26.9542 143.677 25.9239C141.931 24.8651 139.899 24.3357 137.581 24.3357C135.206 24.3357 133.088 24.8937 131.228 26.0098C129.396 27.0973 127.951 28.5854 126.892 30.4742C125.833 32.3343 125.233 34.3805 125.089 36.6127H149.171ZM187.376 64.9444C182.855 64.9444 178.92 63.9571 175.571 61.9824C172.252 60.0078 169.69 57.2176 167.887 53.6117C166.113 50.0059 165.226 45.799 165.226 40.9912C165.226 36.2407 166.113 32.0339 167.887 28.3708C169.69 24.7077 172.223 21.8602 175.485 19.8283C178.748 17.7965 182.511 16.7805 186.775 16.7805C190.524 16.7805 193.958 17.5961 197.078 19.2274C200.197 20.8586 202.701 23.4342 204.59 26.9542C206.507 30.4456 207.466 34.867 207.466 40.2186V43.481H174.326C174.412 46.3714 174.999 48.8755 176.086 50.9932C177.203 53.0823 178.734 54.6706 180.68 55.7581C182.626 56.8455 184.886 57.3893 187.462 57.3893C189.952 57.3893 192.055 56.9314 193.772 56.0156C195.489 55.0712 196.763 53.8407 197.593 52.3239H206.865C206.178 54.8423 204.948 57.0602 203.173 58.9776C201.399 60.8663 199.152 62.3402 196.434 63.399C193.744 64.4293 190.724 64.9444 187.376 64.9444ZM198.451 36.6127C198.451 34.2374 197.965 32.1197 196.992 30.2595C196.047 28.3994 194.702 26.9542 192.957 25.9239C191.211 24.8651 189.179 24.3357 186.861 24.3357C184.486 24.3357 182.368 24.8937 180.508 26.0098C178.676 27.0973 177.231 28.5854 176.172 30.4742C175.113 32.3343 174.512 34.3805 174.369 36.6127H198.451ZM217.339 1.84202H226.783V55.8439H254.857V64H217.339V1.84202ZM298.385 18.24C298.099 15.4069 296.797 13.189 294.479 11.5864C292.16 9.95518 289.199 9.13957 285.593 9.13957C283.103 9.13957 280.914 9.54022 279.025 10.3415C277.136 11.1142 275.677 12.2017 274.646 13.604C273.645 14.9776 273.144 16.5516 273.144 18.3259C273.144 20.9587 274.217 22.9763 276.363 24.3786C278.51 25.7809 281.214 26.8826 284.477 27.6839L290.486 29.3152C295.494 30.4885 299.73 32.4345 303.193 35.1532C306.655 37.8719 308.401 41.7639 308.43 46.8293C308.401 50.3493 307.471 53.4829 305.639 56.2303C303.808 58.9776 301.161 61.1382 297.698 62.7122C294.235 64.2576 290.114 65.0302 285.335 65.0302C280.728 65.0302 276.707 64.3005 273.273 62.841C269.867 61.3528 267.191 59.2351 265.245 56.4878C263.328 53.7405 262.269 50.4924 262.069 46.7434H271.513C271.799 50.0059 273.215 52.4956 275.762 54.2127C278.309 55.9298 281.5 56.7883 285.335 56.7883C287.939 56.7883 290.272 56.3733 292.332 55.5434C294.421 54.6849 296.052 53.4972 297.226 51.9805C298.428 50.4351 299.043 48.6608 299.072 46.6576C299.043 44.1678 298.027 42.2361 296.024 40.8625C294.021 39.4602 291.116 38.2725 287.31 37.2995L279.926 35.3249C269.109 32.3487 263.7 26.854 263.7 18.841C263.7 15.3496 264.659 12.2446 266.576 9.52591C268.522 6.80721 271.184 4.7038 274.56 3.21567C277.937 1.72754 281.701 0.98348 285.85 0.98348C290 0.98348 293.706 1.72754 296.968 3.21567C300.231 4.67518 302.792 6.72136 304.652 9.3542C306.512 11.9584 307.485 14.9204 307.571 18.24H298.385ZM368.699 64H360.028L328.519 18.5835H328.004V64H318.56V1.84202H327.318L358.826 47.3444H359.427V1.84202H368.699V64ZM376.683 64L399.005 1.84202H409.909L432.316 64H422.272L416.605 47.602H392.395L386.728 64H376.683ZM413.858 39.7034L404.672 13.1747H404.242L395.099 39.7034H413.858ZM440.215 1.84202H462.365C467.03 1.84202 470.979 2.71486 474.213 4.46055C477.447 6.17762 479.865 8.5529 481.468 11.5864C483.099 14.6199 483.914 18.097 483.914 22.0176C483.914 25.9096 483.099 29.3724 481.468 32.4059C479.865 35.4394 477.447 37.829 474.213 39.5747C470.979 41.3203 467.03 42.1932 462.365 42.1932H449.659V64H440.215V1.84202ZM461.421 34.123C465.799 34.123 469.047 33.0355 471.165 30.8605C473.312 28.6569 474.385 25.7093 474.385 22.0176C474.385 18.2973 473.326 15.3496 471.208 13.1747C469.09 10.9997 465.828 9.91225 461.421 9.91225H449.659V34.123H461.421Z" fill="#3F3E55"/>
</svg>
