<svg width="50" height="50" viewBox="0 0 50 50" fill="none" xmlns="http://www.w3.org/2000/svg">
<path d="M25 0C38.8071 0 50 11.1929 50 25C50 38.8071 38.8071 50 25 50C11.1929 50 0 38.8071 0 25C0 11.1929 11.1929 0 25 0ZM25 28.7334C20.9129 28.7334 17.0824 30.3779 14.2794 33.2404C13.5549 33.9803 13.5673 35.1674 14.3072 35.8919C15.0471 36.6164 16.2342 36.604 16.9587 35.8641C19.0634 33.7148 21.9315 32.4834 25 32.4834C28.0617 32.4834 30.9241 33.7093 33.0278 35.8503C33.7536 36.5889 34.9407 36.5994 35.6793 35.8736C36.418 35.1478 36.4284 33.9607 35.7026 33.222C32.9009 30.3707 29.0781 28.7334 25 28.7334ZM15.5463 11.6493L15.3172 11.4921C14.5276 11.0319 13.499 11.207 12.9109 11.9421C12.3228 12.6772 12.3777 13.7192 13 14.3886L13.2037 14.5776L16.3447 17.0874C15.1923 17.547 14.3779 18.6732 14.3779 19.9896C14.3779 21.7145 15.7762 23.1128 17.5011 23.1128C19.226 23.1128 20.6243 21.7145 20.6243 19.9885C21.1741 19.9884 21.7189 19.7475 22.0891 19.2847C22.6772 18.5496 22.6223 17.5077 22 16.8383L21.7963 16.6493L15.5463 11.6493ZM37.0889 11.9418C36.5006 11.2068 35.472 11.0319 34.6824 11.4923L34.4534 11.6496L28.2063 16.6496L28.0026 16.8386C27.3804 17.5081 27.3258 18.5501 27.914 19.2851C28.2226 19.6706 28.6524 19.9021 29.1047 19.9662L29.3779 19.9845C29.3779 21.7145 30.7762 23.1128 32.5011 23.1128C34.226 23.1128 35.6243 21.7145 35.6243 19.9896C35.6243 18.7831 34.9402 17.7363 33.9388 17.2162L33.658 17.0876L36.7966 14.5773L37.0003 14.3883C37.6225 13.7188 37.6771 12.6768 37.0889 11.9418Z" fill="#D9D9D9"/>
</svg>
