<svg width="50" height="50" viewBox="0 0 50 50" fill="none" xmlns="http://www.w3.org/2000/svg">
<path d="M25 0C38.8071 0 50 11.1929 50 25C50 38.8071 38.8071 50 25 50C11.1929 50 0 38.8071 0 25C0 11.1929 11.1929 0 25 0ZM16.1557 31.9572C15.5149 31.1439 14.3362 31.0041 13.5229 31.6449C12.7097 32.2857 12.5698 33.4644 13.2106 34.2777C16.0367 37.8645 20.3441 40.0016 25 40.0016C29.6496 40.0016 33.9519 37.8702 36.7784 34.2916C37.4201 33.479 37.2816 32.3001 36.4691 31.6584C35.6566 31.0167 34.4777 31.1551 33.836 31.9676C31.7132 34.6554 28.49 36.2522 25 36.2522C21.5053 36.2522 18.2782 34.6511 16.1557 31.9572ZM17.5023 16.8779C15.7776 16.8779 14.3795 18.276 14.3795 20.0006C14.3795 21.7252 15.7776 23.1233 17.5023 23.1233C19.2269 23.1233 20.625 21.7252 20.625 20.0006C20.625 18.276 19.2269 16.8779 17.5023 16.8779ZM32.5 16.8779C30.7753 16.8779 29.3772 18.276 29.3772 20.0006C29.3772 21.7252 30.7753 23.1233 32.5 23.1233C34.2246 23.1233 35.6227 21.7252 35.6227 20.0006C35.6227 18.276 34.2246 16.8779 32.5 16.8779Z" fill="#FBCE49"/>
</svg>
