<svg width="50" height="50" viewBox="0 0 50 50" fill="none" xmlns="http://www.w3.org/2000/svg">
<path d="M25 0C38.8071 0 50 11.1929 50 25C50 38.8071 38.8071 50 25 50C11.1929 50 0 38.8071 0 25C0 11.1929 11.1929 0 25 0ZM25 28.7431C20.9135 28.7431 17.0836 30.3874 14.281 33.2494C13.5566 33.9891 13.5691 35.1761 14.3088 35.9005C15.0486 36.6249 16.2355 36.6124 16.9599 35.8727C19.0643 33.7237 21.932 32.4925 25 32.4925C28.0613 32.4925 30.9232 33.7183 33.0265 35.8589C33.7522 36.5974 34.9392 36.6078 35.6777 35.8822C36.4162 35.1565 36.4266 33.9695 35.701 33.231C32.8997 30.3801 29.0775 28.7431 25 28.7431ZM17.5023 16.8779C15.7776 16.8779 14.3795 18.276 14.3795 20.0006C14.3795 21.7252 15.7776 23.1233 17.5023 23.1233C19.2269 23.1233 20.625 21.7252 20.625 20.0006C20.625 18.276 19.2269 16.8779 17.5023 16.8779ZM32.5 16.8779C30.7753 16.8779 29.3772 18.276 29.3772 20.0006C29.3772 21.7252 30.7753 23.1233 32.5 23.1233C34.2246 23.1233 35.6227 21.7252 35.6227 20.0006C35.6227 18.276 34.2246 16.8779 32.5 16.8779Z" fill="#D9D9D9"/>
</svg>
