<svg width="50" height="50" viewBox="0 0 50 50" fill="none" xmlns="http://www.w3.org/2000/svg">
<path d="M25 0C11.1929 0 0 11.1929 0 25C0 38.807 11.1929 50 25 50C38.807 50 50 38.807 50 25C50 11.1929 38.807 0 25 0ZM20.6245 20.001C20.6245 21.726 19.2262 23.1242 17.5013 23.1242C15.7764 23.1242 14.3781 21.726 14.3781 20.001C14.3781 18.2762 15.7764 16.8779 17.5013 16.8779C19.2262 16.8779 20.6245 18.2762 20.6245 20.001ZM35.6245 20.001C35.6245 21.726 34.2262 23.1242 32.5012 23.1242C30.7762 23.1242 29.378 21.726 29.378 20.001C29.378 18.2762 30.7762 16.8779 32.5012 16.8779C34.2262 16.8779 35.6245 18.2762 35.6245 20.001ZM13.75 34.375C13.75 33.3395 14.5895 32.5 15.625 32.5H34.375C35.4105 32.5 36.25 33.3395 36.25 34.375C36.25 35.4105 35.4105 36.25 34.375 36.25H15.625C14.5895 36.25 13.75 35.4105 13.75 34.375Z" fill="#D9D9D9"/>
</svg>
