<svg width="50" height="50" viewBox="0 0 50 50" fill="none" xmlns="http://www.w3.org/2000/svg">
<path d="M25 0C38.8071 0 50 11.1929 50 25C50 38.8071 38.8071 50 25 50C11.1929 50 0 38.8071 0 25C0 11.1929 11.1929 0 25 0ZM25 27.4884C21.8934 27.4884 19.375 30.0068 19.375 33.1134C19.375 36.22 21.8934 38.7384 25 38.7384C28.1066 38.7384 30.625 36.22 30.625 33.1134C30.625 30.0068 28.1066 27.4884 25 27.4884ZM17.5011 16.8663C15.7762 16.8663 14.3779 18.2647 14.3779 19.9896C14.3779 21.7145 15.7762 23.1128 17.5011 23.1128C19.226 23.1128 20.6243 21.7145 20.6243 19.9896C20.6243 18.2647 19.226 16.8663 17.5011 16.8663ZM32.5011 16.8663C30.7762 16.8663 29.3779 18.2647 29.3779 19.9896C29.3779 21.7145 30.7762 23.1128 32.5011 23.1128C34.226 23.1128 35.6243 21.7145 35.6243 19.9896C35.6243 18.2647 34.226 16.8663 32.5011 16.8663Z" fill="#D9D9D9"/>
</svg>
