<svg width="1520" height="982" viewBox="0 0 1520 982" fill="none" xmlns="http://www.w3.org/2000/svg">
<g clip-path="url(#clip0_347_3)">
<rect width="1520" height="982" fill="#F5F5F5"/>
<path d="M1430.59 464.599C1367.44 599.553 1262.63 510.825 1191.15 569.65C1243.75 499.502 1398.79 526.719 1430.59 464.599C1431.19 463.323 1431.78 462.028 1432.37 460.712C1431.83 462.045 1431.24 463.34 1430.59 464.599Z" fill="#00A89A"/>
<path d="M-88.7814 596.741C313.369 775.849 590.476 296.169 877.491 557.516C585.869 326.368 -9.47974 1042.66 -88.7814 596.741Z" fill="#10D4A9"/>
<path d="M-34.5075 -43.5562C21.4108 246.564 313.911 734.096 686.501 667.508C1285.07 520.547 1531.02 788.906 1248.9 804.158C1448.43 739.234 1059.09 600.92 686.501 667.508C151.494 874.275 -110.178 186.725 -34.5075 -43.5562Z" fill="#00A891"/>
</g>
<defs>
<clipPath id="clip0_347_3">
<rect width="1520" height="982" fill="white"/>
</clipPath>
</defs>
</svg>
