<svg width="2277" height="1658" viewBox="0 0 2277 1658" fill="none" xmlns="http://www.w3.org/2000/svg">
<path d="M2263.28 741.883C2171.15 938.738 2018.27 809.312 1914.01 895.118C1990.73 792.796 2216.88 832.497 2263.28 741.883C2264.15 740.022 2265.02 738.132 2265.88 736.213C2265.09 738.158 2264.22 740.047 2263.28 741.883Z" fill="#00A89A"/>
<path d="M46.9958 934.636C633.605 1195.9 1037.82 496.197 1456.48 877.419C1031.1 540.249 162.672 1585.09 46.9958 934.636Z" fill="#10D4A9"/>
<path d="M126.165 0.647355C207.732 423.84 634.396 1134.99 1177.89 1037.86C2051.01 823.494 2409.77 1214.94 1998.25 1237.19C2289.29 1142.49 1721.38 940.732 1177.89 1037.86C397.482 1339.47 15.7856 336.554 126.165 0.647355Z" fill="#00A891"/>
</svg>
