<svg width="1519" height="982" viewBox="0 0 1519 982" fill="none" xmlns="http://www.w3.org/2000/svg">
<g clip-path="url(#clip0_347_3)">
<rect width="1519" height="982" fill="#F5F5F5"/>
<path d="M1430.59 524.599C1367.44 659.553 1262.63 570.825 1191.15 629.65C1243.75 559.502 1398.79 586.719 1430.59 524.599C1431.19 523.323 1431.78 522.028 1432.37 520.712C1431.83 522.045 1431.24 523.34 1430.59 524.599Z" fill="#00A89A"/>
<path d="M-88.7814 656.741C313.369 835.849 590.476 356.169 877.491 617.516C585.869 386.368 -9.47974 1102.66 -88.7814 656.741Z" fill="#10D4A9"/>
<path d="M-34.5075 16.4438C21.4108 306.564 313.911 794.096 686.501 727.508C1285.07 580.547 1531.02 848.906 1248.9 864.158C1448.43 799.234 1059.09 660.92 686.501 727.508C151.494 934.275 -110.178 246.725 -34.5075 16.4438Z" fill="#00A891"/>
</g>
<defs>
<clipPath id="clip0_347_3">
<rect width="1519" height="982" fill="white"/>
</clipPath>
</defs>
</svg>
